<svg id="图层_1" data-name="图层 1" xmlns="http://www.w3.org/2000/svg" xmlns:xlink="http://www.w3.org/1999/xlink" viewBox="0 0 241.55 188.07"><defs><style>.cls-1{fill:#8bd2ff;stroke:#fff;stroke-miterlimit:10;stroke-width:2px;}.cls-2{fill:#fff;}.cls-3{fill:url(#未命名的渐变_49);}</style><linearGradient id="未命名的渐变_49" x1="105.57" y1="94.04" x2="194.37" y2="94.04" gradientUnits="userSpaceOnUse"><stop offset="0" stop-color="#ff9689"/><stop offset="0.33" stop-color="#ffaba1"/><stop offset="1" stop-color="#ffd4cf"/></linearGradient></defs><path class="cls-1" d="M95.58,85h47.94v64.89H94.69q-12.61,0-20.07-1.89a35.83,35.83,0,0,1-13.52-6.63Q43.9,128.05,43.9,95.61q0-21.14,8.19-35.22A36.22,36.22,0,0,1,68.64,45.31q10.49-4.74,27.2-4.75h24.78v19.5H98.46q-14.58,0-21.14,6.39-7.86,7.53-7.86,27a72.79,72.79,0,0,0,2.05,18q2,8,5.65,12a17.69,17.69,0,0,0,8.6,5.24,48,48,0,0,0,13.52,1.64h21.13V104.46H95.58Z"/><path class="cls-2" d="M125.39,37.41v67.41a46.93,46.93,0,0,0,1.31,12.56,18.19,18.19,0,0,0,4.43,7.67Q138,132,150.3,132A31.48,31.48,0,0,0,164,129.18a16.51,16.51,0,0,0,8.11-7.5q2.29-4.73,2.29-16.86V37.41h23.27v66.23q0,13.15-2.71,21.66A31.46,31.46,0,0,1,186.67,139q-12.94,11.63-36.7,11.63-25.4,0-37-11.47A31.34,31.34,0,0,1,104.59,126q-2.31-7.32-2.3-20.64V37.41Z"/><path class="cls-3" d="M150,147.48c-15.94,0-27.62-3.54-34.69-10.51a28.53,28.53,0,0,1-7.56-11.92c-1.42-4.56-2.15-11.2-2.15-19.72V40.59h16.54v64.23c0,5.76.47,10.15,1.44,13.43a21.29,21.29,0,0,0,5.2,9c5.23,5.25,12.47,7.9,21.55,7.9a34.94,34.94,0,0,0,15.13-3.1c4.54-2.18,7.78-5.2,9.62-9,1.76-3.61,2.61-9.57,2.61-18.22V40.59h16.71v63.05c0,8.41-.86,15.38-2.56,20.72a28.39,28.39,0,0,1-7.42,12.38C176.48,143.85,164.88,147.48,150,147.48Z"/></svg>