<svg id="图层_1" data-name="图层 1" xmlns="http://www.w3.org/2000/svg" viewBox="0 0 207.47 110.45"><defs><style>.cls-1{fill:#fff;stroke-width:0.45px;}.cls-1,.cls-2{stroke:#b5b5b6;}.cls-1,.cls-2,.cls-8{stroke-miterlimit:10;}.cls-2,.cls-8{fill:none;stroke-linecap:round;}.cls-2{stroke-width:0.91px;}.cls-3{font-size:13.62px;}.cls-3,.cls-5{font-family:ArialMT, Arial;}.cls-4{letter-spacing:-0.06em;}.cls-5{font-size:31.78px;}.cls-6{fill:#f4f4f4;}.cls-7{fill:#8bd2ff;}.cls-8{stroke:#4f4f4f;stroke-width:0.63px;}</style></defs><rect class="cls-1" x="0.23" y="0.23" width="207.01" height="110" rx="5.26"/><line class="cls-2" x1="96.63" y1="22.95" x2="96.63" y2="88.55"/><text class="cls-3" transform="translate(130.82 68.39)">scRN<tspan class="cls-4" x="33.29" y="0">A</tspan><tspan x="-2.66" y="15">Dataset</tspan></text><text class="cls-5" transform="translate(133.96 49.91)">54</text><circle class="cls-6" cx="47.99" cy="55.75" r="29.87"/><path class="cls-7" d="M31.84,52.86c0,2,4.72,3.64,10.55,3.64S53,54.87,53,52.86V50.25c0,2-4.73,3.65-10.56,3.65s-10.55-1.63-10.55-3.65Z"/><path class="cls-7" d="M31.84,59.93c0,2,4.72,3.64,10.55,3.64S53,61.94,53,59.93V57.32c0,2-4.73,3.65-10.56,3.65s-10.55-1.64-10.55-3.65Z"/><path class="cls-7" d="M31.84,67.1c0,2,4.72,3.65,10.55,3.65S53,69.12,53,67.1V64.5c0,2-4.73,3.65-10.56,3.65S31.84,66.51,31.84,64.5Z"/><ellipse class="cls-7" cx="42.76" cy="44.98" rx="10.56" ry="3.65"/><path class="cls-8" d="M50.76,48.82a18.88,18.88,0,0,1-6.82,1.52"/><path class="cls-8" d="M44.58,53c-.8.06-1.65.1-2.52.1-5.83,0-10.55-1.63-10.55-3.65V52c0,2,4.72,3.65,10.55,3.65S52.62,54.05,52.62,52V49.43c0,1.31-2,2.45-5,3.1"/><path class="cls-8" d="M40.12,62.69c.63,0,1.28.06,1.94.06,5.83,0,10.56-1.63,10.56-3.64V56.5c0,2-4.73,3.65-10.56,3.65S31.51,58.52,31.51,56.5v2.61c0,1.38,2.23,2.58,5.51,3.2"/><path class="cls-8" d="M52.62,44.4c0,2-4.73,3.65-10.56,3.65a28.15,28.15,0,0,1-3.9-.26"/><path class="cls-8" d="M34.81,47.05c-2-.66-3.3-1.6-3.3-2.65,0-2,4.72-3.64,10.55-3.64a28.08,28.08,0,0,1,4.67.37"/><path class="cls-8" d="M42.58,67.21h-.52c-5.83,0-10.55-1.63-10.55-3.65v2.61c0,2,4.72,3.64,10.55,3.64s10.56-1.63,10.56-3.64V63.57c0,1.44-2.4,2.68-5.89,3.27"/><path class="cls-8" d="M42.06,40.76c-5.83,0-10.55,1.63-10.55,3.64V66.18c0,2,4.72,3.64,10.55,3.64s10.56-1.63,10.56-3.64V44.4c0-1.08-1.38-2.06-3.56-2.73"/><path class="cls-6" d="M66.17,58.27A3.27,3.27,0,0,0,62.91,55H50.82a3.27,3.27,0,0,0-3.26,3.26v.37H66.17Z"/><path class="cls-7" d="M66.48,58.85a3.26,3.26,0,0,0-3.26-3.25H51.12a3.26,3.26,0,0,0-3.25,3.25v.38H66.48Z"/><path class="cls-6" d="M47.56,58.64v8.6a3.27,3.27,0,0,0,3.26,3.26H62.91a3.27,3.27,0,0,0,3.26-3.26v-8.6Z"/><path class="cls-8" d="M58.15,55H50.82a3.27,3.27,0,0,0-3.26,3.26v.37H66.17v-.37A3.27,3.27,0,0,0,62.91,55"/><line class="cls-8" x1="66.17" y1="64.17" x2="66.17" y2="58.64"/><path class="cls-8" d="M47.56,58.64v8.6a3.27,3.27,0,0,0,3.26,3.26H62.91a3.27,3.27,0,0,0,3.26-3.26"/><path class="cls-7" d="M51.19,63.3a.37.37,0,0,1-.32-.17A.38.38,0,0,1,51,62.6l3.18-2.09a1.52,1.52,0,0,1,1.75.06l2.18,1.65a.45.45,0,0,0,.55,0l3-2.58a.38.38,0,1,1,.49.57l-3,2.58a1.19,1.19,0,0,1-1.5,0l-2.17-1.65a.79.79,0,0,0-.88,0l-3.19,2.1A.36.36,0,0,1,51.19,63.3Z"/><path class="cls-7" d="M51.19,63.3a.37.37,0,0,1-.32-.17A.38.38,0,0,1,51,62.6l3.18-2.09a1.52,1.52,0,0,1,1.75.06l2.18,1.65a.45.45,0,0,0,.55,0l3-2.58a.38.38,0,1,1,.49.57l-3,2.58a1.19,1.19,0,0,1-1.5,0l-2.17-1.65a.79.79,0,0,0-.88,0l-3.19,2.1A.36.36,0,0,1,51.19,63.3Z"/><rect class="cls-7" x="50.49" y="64.72" width="1.98" height="3.64" rx="0.41"/><rect class="cls-7" x="53.96" y="63.45" width="1.98" height="4.9" rx="0.41"/><rect class="cls-7" x="57.43" y="66.1" width="1.98" height="2.26" rx="0.41"/><rect class="cls-7" x="60.9" y="62.51" width="1.98" height="5.85" rx="0.41"/><path class="cls-6" d="M55.32,57.23H50.38a.4.4,0,0,1,0-.8h4.94a.4.4,0,0,1,0,.8Z"/></svg>