<svg id="图层_1" data-name="图层 1" xmlns="http://www.w3.org/2000/svg" viewBox="0 0 207.47 110.45"><defs><style>.cls-1{fill:#fff;stroke-width:0.45px;}.cls-1,.cls-2{stroke:#b5b5b6;}.cls-1,.cls-2,.cls-7{stroke-miterlimit:10;}.cls-2,.cls-7{fill:none;stroke-linecap:round;}.cls-2{stroke-width:0.91px;}.cls-3{font-size:31.78px;}.cls-3,.cls-5{font-family:ArialMT, Arial;}.cls-4{fill:#f4f4f4;}.cls-5{font-size:13.62px;}.cls-6{fill:#8bd2ff;}.cls-7{stroke:#4f4f4f;stroke-width:0.63px;}</style></defs><rect class="cls-1" x="0.23" y="0.23" width="207.01" height="110" rx="5.26"/><line class="cls-2" x1="96.63" y1="22.95" x2="96.63" y2="88.55"/><text class="cls-3" transform="translate(142.8 49.91)">8</text><circle class="cls-4" cx="47.99" cy="55.75" r="29.87"/><text class="cls-5" transform="translate(130.81 67.63)">Spatial<tspan x="-20.43" y="14">transcriptome</tspan><tspan x="-2.65" y="28">Dataset</tspan></text><path class="cls-6" d="M33.11,52.86c0,2,4.72,3.64,10.55,3.64s10.56-1.63,10.56-3.64V50.25c0,2-4.73,3.65-10.56,3.65s-10.55-1.63-10.55-3.65Z"/><path class="cls-6" d="M33.11,59.93c0,2,4.72,3.64,10.55,3.64s10.56-1.63,10.56-3.64V57.32c0,2-4.73,3.65-10.56,3.65s-10.55-1.64-10.55-3.65Z"/><path class="cls-6" d="M33.11,67.1c0,2,4.72,3.65,10.55,3.65s10.56-1.63,10.56-3.65V64.5c0,2-4.73,3.65-10.56,3.65S33.11,66.51,33.11,64.5Z"/><ellipse class="cls-6" cx="44.03" cy="44.98" rx="10.56" ry="3.65"/><path class="cls-7" d="M52,48.82a18.88,18.88,0,0,1-6.82,1.52"/><path class="cls-7" d="M45.85,53c-.8.06-1.65.1-2.52.1-5.83,0-10.55-1.63-10.55-3.65V52c0,2,4.72,3.65,10.55,3.65S53.89,54.05,53.89,52V49.43c0,1.31-2,2.45-5,3.1"/><path class="cls-7" d="M41.39,62.69c.63,0,1.28.06,1.94.06,5.83,0,10.56-1.63,10.56-3.64V56.5c0,2-4.73,3.65-10.56,3.65S32.78,58.52,32.78,56.5v2.61c0,1.38,2.23,2.58,5.51,3.2"/><path class="cls-7" d="M53.89,44.4c0,2-4.73,3.65-10.56,3.65a28.15,28.15,0,0,1-3.9-.26"/><path class="cls-7" d="M36.08,47.05c-2-.66-3.3-1.6-3.3-2.65,0-2,4.72-3.64,10.55-3.64a28.08,28.08,0,0,1,4.67.37"/><path class="cls-7" d="M43.85,67.21h-.52c-5.83,0-10.55-1.63-10.55-3.65v2.61c0,2,4.72,3.64,10.55,3.64s10.56-1.63,10.56-3.64V63.57c0,1.44-2.4,2.68-5.89,3.27"/><path class="cls-7" d="M43.33,40.76c-5.83,0-10.55,1.63-10.55,3.64V66.18c0,2,4.72,3.64,10.55,3.64s10.56-1.63,10.56-3.64V44.4c0-1.08-1.38-2.06-3.56-2.73"/><path class="cls-4" d="M67.44,58.27A3.26,3.26,0,0,0,64.19,55H52.09a3.27,3.27,0,0,0-3.26,3.26v.37H67.44Z"/><path class="cls-6" d="M67.75,58.85a3.26,3.26,0,0,0-3.26-3.25H52.39a3.26,3.26,0,0,0-3.25,3.25v.38H67.75Z"/><path class="cls-4" d="M48.83,58.64v8.6a3.27,3.27,0,0,0,3.26,3.26h12.1a3.26,3.26,0,0,0,3.25-3.26v-8.6Z"/><path class="cls-7" d="M59.42,55H52.09a3.27,3.27,0,0,0-3.26,3.26v.37H67.44v-.37A3.26,3.26,0,0,0,64.19,55"/><line class="cls-7" x1="67.44" y1="64.17" x2="67.44" y2="58.64"/><path class="cls-7" d="M48.83,58.64v8.6a3.27,3.27,0,0,0,3.26,3.26h12.1a3.26,3.26,0,0,0,3.25-3.26"/><path class="cls-6" d="M52.46,63.3a.37.37,0,0,1-.32-.17.38.38,0,0,1,.11-.53l3.18-2.09a1.52,1.52,0,0,1,1.75.06l2.18,1.65a.45.45,0,0,0,.55,0l3-2.58a.38.38,0,0,1,.49.57l-3,2.58a1.19,1.19,0,0,1-1.5,0l-2.17-1.65a.79.79,0,0,0-.88,0l-3.19,2.1A.36.36,0,0,1,52.46,63.3Z"/><path class="cls-6" d="M52.46,63.3a.37.37,0,0,1-.32-.17.38.38,0,0,1,.11-.53l3.18-2.09a1.52,1.52,0,0,1,1.75.06l2.18,1.65a.45.45,0,0,0,.55,0l3-2.58a.38.38,0,0,1,.49.57l-3,2.58a1.19,1.19,0,0,1-1.5,0l-2.17-1.65a.79.79,0,0,0-.88,0l-3.19,2.1A.36.36,0,0,1,52.46,63.3Z"/><rect class="cls-6" x="51.76" y="64.72" width="1.98" height="3.64" rx="0.41"/><rect class="cls-6" x="55.23" y="63.45" width="1.98" height="4.9" rx="0.41"/><rect class="cls-6" x="58.7" y="66.1" width="1.98" height="2.26" rx="0.41"/><rect class="cls-6" x="62.17" y="62.51" width="1.98" height="5.85" rx="0.41"/><path class="cls-4" d="M56.59,57.23H51.65a.4.4,0,0,1,0-.8h4.94a.4.4,0,0,1,0,.8Z"/></svg>