<svg id="图层_1" data-name="图层 1" xmlns="http://www.w3.org/2000/svg" viewBox="0 0 207.47 110.45"><defs><style>.cls-1{fill:#fff;stroke-width:0.45px;}.cls-1,.cls-2{stroke:#b5b5b6;}.cls-1,.cls-2,.cls-7{stroke-miterlimit:10;}.cls-2,.cls-7{fill:none;stroke-linecap:round;}.cls-2{stroke-width:0.91px;}.cls-3{font-size:23.41px;letter-spacing:-0.02em;}.cls-3,.cls-5{font-family:ArialMT, Arial;}.cls-4{fill:#f4f4f4;}.cls-5{font-size:13.62px;}.cls-6{fill:#8bd2ff;}.cls-7{stroke:#4f4f4f;stroke-width:0.63px;}</style></defs><rect class="cls-1" x="0.23" y="0.23" width="207.01" height="110" rx="5.26"/><line class="cls-2" x1="96.63" y1="22.95" x2="96.63" y2="88.55"/><text class="cls-3" transform="translate(100.58 47.68) scale(0.93 1)"><tspan xml:space="preserve"> 2,458,971</tspan></text><circle class="cls-4" cx="47.99" cy="55.75" r="29.87"/><text class="cls-5" transform="translate(139.27 75.89)">Cell</text><path class="cls-6" d="M48,77.46A22.22,22.22,0,1,1,70.21,55.24,22.24,22.24,0,0,1,48,77.46Zm0-42A19.78,19.78,0,1,0,67.77,55.24,19.81,19.81,0,0,0,48,35.46Z"/><path class="cls-7" d="M48,34.05a22.24,22.24,0,1,1-14.12,5.08m33.9,17.13a19.77,19.77,0,1,0-1.3,7.06"/><circle class="cls-6" cx="54.18" cy="58.58" r="7.56"/><path class="cls-6" d="M36.86,57a5.38,5.38,0,0,1-.36-2.88c.1-.59.45-1.23,1-1.27a1.32,1.32,0,0,1,1.06.57,6.33,6.33,0,0,1,1.23,4c0,.76-.25,2.35-1.41,2C37.67,59.28,37.12,57.67,36.86,57Z"/><path class="cls-6" d="M52.08,41.7a4.2,4.2,0,0,1-1.79-1.43A1.09,1.09,0,0,1,50.18,39a1.07,1.07,0,0,1,.91-.26A5.05,5.05,0,0,1,54,40.3c.43.41,1.15,1.46.33,1.92C53.77,42.52,52.58,41.92,52.08,41.7Z"/><path class="cls-6" d="M43.6,71a5.37,5.37,0,0,1-2.71-1.07,1.4,1.4,0,0,1-.61-1.53,1.33,1.33,0,0,1,1-.65,6.33,6.33,0,0,1,4.09.85c.68.34,1.94,1.35,1.12,2.21C46,71.36,44.29,71.07,43.6,71Z"/><circle class="cls-6" cx="33.91" cy="50.11" r="1.51"/><circle class="cls-7" cx="53.75" cy="57.51" r="7.56"/><path class="cls-7" d="M47.86,52.72a1.34,1.34,0,0,1-1.81-.64,2,2,0,0,1,.35-2,4,4,0,0,1,1.81-1.14c.69-.23,1.4-.37,2.09-.61a2.55,2.55,0,0,0,1.55-1.14,1.88,1.88,0,0,0-.77-2.32,2.81,2.81,0,0,0-2.57-.07,5.82,5.82,0,0,0-2,1.71c-.56.69-1.05,1.44-1.65,2.11a4.86,4.86,0,0,1-2.17,1.52A1.26,1.26,0,0,1,41.43,50a1.15,1.15,0,0,1-.31-.82,3.26,3.26,0,0,1,2-2.72c1-.55,2.24-.81,3.27-1.39a2.18,2.18,0,0,0,1.29-1.68,1.69,1.69,0,0,0-1.31-1.54,3.28,3.28,0,0,0-2.12.3c-2.4,1.09-3.86,3.53-5,5.89"/><path class="cls-7" d="M36.22,57a5.29,5.29,0,0,1-.37-2.88c.11-.59.46-1.23,1-1.27a1.34,1.34,0,0,1,1.06.57,6.32,6.32,0,0,1,1.22,4c0,.76-.25,2.35-1.4,2C37,59.28,36.47,57.67,36.22,57Z"/><path class="cls-7" d="M52.08,41.16a4.18,4.18,0,0,1-1.79-1.42,1.09,1.09,0,0,1-.11-1.29,1,1,0,0,1,.91-.26A5,5,0,0,1,54,39.76c.43.42,1.15,1.46.33,1.92C53.77,42,52.58,41.38,52.08,41.16Z"/><path class="cls-7" d="M43.35,71.8a5.2,5.2,0,0,1-2.71-1.07c-.46-.37-.85-1-.61-1.52a1.37,1.37,0,0,1,1-.66,6.33,6.33,0,0,1,4.09.85c.68.35,1.94,1.35,1.12,2.22C45.71,72.18,44,71.89,43.35,71.8Z"/><circle class="cls-7" cx="34.27" cy="49.5" r="1.51"/><circle class="cls-6" cx="31.84" cy="58.31" r="1.51"/><circle class="cls-7" cx="32.2" cy="57.7" r="1.51"/><circle class="cls-6" cx="36.25" cy="67.54" r="1.51"/><circle class="cls-7" cx="36.61" cy="66.93" r="1.51"/><circle class="cls-6" cx="40.23" cy="62.92" r="1.51"/><circle class="cls-7" cx="40.59" cy="62.32" r="1.51"/><circle class="cls-6" cx="51.88" cy="69.76" r="1.51"/><circle class="cls-7" cx="52.24" cy="69.15" r="1.51"/><circle class="cls-6" cx="64.19" cy="54.68" r="1.51"/><circle class="cls-7" cx="64.54" cy="54.07" r="1.51"/><circle class="cls-6" cx="60.81" cy="48.3" r="1.51"/><circle class="cls-7" cx="61.16" cy="47.69" r="1.51"/><circle class="cls-6" cx="54.49" cy="45.8" r="1.51"/><circle class="cls-7" cx="54.85" cy="45.2" r="1.51"/><circle class="cls-6" cx="40.41" cy="41.49" r="1.51"/><circle class="cls-7" cx="40.76" cy="40.88" r="1.51"/><circle class="cls-4" cx="55.26" cy="60.28" r="1.51"/></svg>