<svg id="图层_1" data-name="图层 1" xmlns="http://www.w3.org/2000/svg" viewBox="0 0 207.47 110.45"><defs><style>.cls-1{fill:#fff;stroke-width:0.45px;}.cls-1,.cls-2{stroke:#b5b5b6;}.cls-1,.cls-2,.cls-7{stroke-miterlimit:10;}.cls-2,.cls-7{fill:none;stroke-linecap:round;}.cls-2{stroke-width:0.91px;}.cls-3{font-size:27.54px;letter-spacing:-0.02em;}.cls-3,.cls-5{font-family:ArialMT, Arial;}.cls-4{fill:#f4f4f4;}.cls-5{font-size:13.62px;}.cls-6{fill:#8bd2ff;}.cls-7{stroke:#4f4f4f;stroke-width:0.63px;}</style></defs><rect class="cls-1" x="0.23" y="0.23" width="207.01" height="110" rx="5.26"/><line class="cls-2" x1="96.63" y1="22.95" x2="96.63" y2="88.55"/><text class="cls-3" transform="translate(111.17 48.78)">50,000</text><circle class="cls-4" cx="47.99" cy="55.75" r="29.87"/><text class="cls-5" transform="translate(137.63 75.89)">Spot</text><ellipse class="cls-6" cx="32.48" cy="51.97" rx="1.6" ry="2.69" transform="translate(-20.53 82.72) rotate(-88.11)"/><ellipse class="cls-6" cx="37.46" cy="54.88" rx="1.6" ry="2.69" transform="translate(-18.62 90.51) rotate(-88.11)"/><ellipse class="cls-6" cx="42.89" cy="57.9" rx="1.6" ry="2.69" transform="translate(-16.4 98.86) rotate(-88.11)"/><ellipse class="cls-6" cx="47.92" cy="61.01" rx="1.6" ry="2.69" transform="translate(-14.63 106.89) rotate(-88.11)"/><ellipse class="cls-6" cx="37.84" cy="49.08" rx="1.6" ry="2.69" transform="translate(-12.45 85.28) rotate(-88.11)"/><ellipse class="cls-6" cx="42.82" cy="51.99" rx="1.6" ry="2.69" transform="translate(-10.55 93.08) rotate(-88.11)"/><ellipse class="cls-6" cx="48.25" cy="55.01" rx="1.6" ry="2.69" transform="translate(-8.33 101.42) rotate(-88.11)"/><ellipse class="cls-6" cx="53.28" cy="58.12" rx="1.6" ry="2.69" transform="translate(-6.56 109.45) rotate(-88.11)"/><ellipse class="cls-6" cx="43.2" cy="46.19" rx="1.6" ry="2.69" transform="matrix(0.03, -1, 1, 0.03, -4.38, 87.85)"/><ellipse class="cls-6" cx="48.18" cy="49.1" rx="1.6" ry="2.69" transform="matrix(0.03, -1, 1, 0.03, -2.48, 95.64)"/><ellipse class="cls-6" cx="53.61" cy="52.12" rx="1.6" ry="2.69" transform="matrix(0.03, -1, 1, 0.03, -0.25, 103.98)"/><ellipse class="cls-6" cx="58.64" cy="55.23" rx="1.6" ry="2.69" transform="translate(1.51 112.02) rotate(-88.11)"/><ellipse class="cls-6" cx="48.56" cy="43.3" rx="1.6" ry="2.69" transform="matrix(0.03, -1, 1, 0.03, 3.69, 90.41)"/><ellipse class="cls-6" cx="53.54" cy="46.21" rx="1.6" ry="2.69" transform="translate(5.59 98.2) rotate(-88.11)"/><ellipse class="cls-6" cx="58.97" cy="49.23" rx="1.6" ry="2.69" transform="translate(7.82 106.55) rotate(-88.11)"/><ellipse class="cls-6" cx="64" cy="52.34" rx="1.6" ry="2.69" transform="translate(9.59 114.58) rotate(-88.11)"/><path class="cls-7" d="M26.65,51.7,47.21,38.62,69.35,51.68a.08.08,0,0,1,0,.13L49,65.05,26.65,51.79A.06.06,0,0,1,26.65,51.7Z"/><polygon class="cls-6" points="48.24 65.62 48.24 72.89 25.82 59.59 25.82 52.32 48.24 65.62"/><polygon class="cls-6" points="49.7 65.62 70.16 52.32 70.16 59.91 49.7 72.89 49.7 65.62"/><path class="cls-7" d="M49,65.05v7.12a.08.08,0,0,1-.12.07L26.58,59V51.82a0,0,0,0,1,.06,0Z"/><path class="cls-7" d="M49,65.05,69.2,51.91a.17.17,0,0,1,.26.14v7.28L49.1,72.25s-.1,0-.1-.06Z"/><ellipse class="cls-7" cx="32.8" cy="51.28" rx="1.6" ry="2.69" transform="translate(-19.53 82.37) rotate(-88.11)"/><ellipse class="cls-7" cx="37.78" cy="54.19" rx="1.6" ry="2.69" transform="translate(-17.62 90.17) rotate(-88.11)"/><ellipse class="cls-7" cx="43.21" cy="57.21" rx="1.6" ry="2.69" transform="translate(-15.4 98.51) rotate(-88.11)"/><ellipse class="cls-7" cx="48.24" cy="60.32" rx="1.6" ry="2.69" transform="translate(-13.63 106.55) rotate(-88.11)"/><ellipse class="cls-7" cx="38.16" cy="48.39" rx="1.6" ry="2.69" transform="translate(-11.46 84.94) rotate(-88.11)"/><ellipse class="cls-7" cx="43.14" cy="51.3" rx="1.6" ry="2.69" transform="translate(-9.55 92.73) rotate(-88.11)"/><ellipse class="cls-7" cx="48.57" cy="54.32" rx="1.6" ry="2.69" transform="translate(-7.33 101.08) rotate(-88.11)"/><ellipse class="cls-7" cx="53.6" cy="57.43" rx="1.6" ry="2.69" transform="translate(-5.56 109.11) rotate(-88.11)"/><ellipse class="cls-7" cx="43.53" cy="45.5" rx="1.6" ry="2.69" transform="matrix(0.03, -1, 1, 0.03, -3.38, 87.5)"/><ellipse class="cls-7" cx="48.5" cy="48.41" rx="1.6" ry="2.69" transform="translate(-1.48 95.29) rotate(-88.11)"/><ellipse class="cls-7" cx="53.93" cy="51.43" rx="1.6" ry="2.69" transform="translate(0.75 103.64) rotate(-88.11)"/><ellipse class="cls-7" cx="58.96" cy="54.54" rx="1.6" ry="2.69" transform="translate(2.51 111.67) rotate(-88.11)"/><ellipse class="cls-7" cx="48.89" cy="42.61" rx="1.6" ry="2.69" transform="translate(4.69 90.06) rotate(-88.11)"/><ellipse class="cls-7" cx="53.86" cy="45.52" rx="1.6" ry="2.69" transform="matrix(0.03, -1, 1, 0.03, 6.59, 97.86)"/><ellipse class="cls-7" cx="59.29" cy="48.54" rx="1.6" ry="2.69" transform="translate(8.82 106.2) rotate(-88.11)"/><ellipse class="cls-7" cx="64.33" cy="51.65" rx="1.6" ry="2.69" transform="translate(10.59 114.24) rotate(-88.11)"/></svg>