<svg id="图层_1" data-name="图层 1" xmlns="http://www.w3.org/2000/svg" viewBox="0 0 207.47 110.45"><defs><style>.cls-1{fill:#fff;stroke-width:0.45px;}.cls-1,.cls-2{stroke:#b5b5b6;}.cls-1,.cls-2,.cls-7{stroke-miterlimit:10;}.cls-2,.cls-7{fill:none;stroke-linecap:round;}.cls-2{stroke-width:0.91px;}.cls-3{font-size:13.62px;}.cls-3,.cls-4{font-family:ArialMT, Arial;}.cls-4{font-size:31.78px;}.cls-5{fill:#f4f4f4;}.cls-6{fill:#8bd2ff;}.cls-7{stroke:#4f4f4f;stroke-width:0.63px;}</style></defs><rect class="cls-1" x="0.23" y="0.23" width="207.01" height="110" rx="5.26"/><line class="cls-2" x1="96.63" y1="22.95" x2="96.63" y2="88.55"/><text class="cls-3" transform="translate(111.51 68.39)">Development<tspan x="25.36" y="15">state</tspan></text><text class="cls-4" transform="translate(133.96 49.91)">19</text><circle class="cls-5" cx="47.99" cy="55.75" r="29.87"/><path class="cls-6" d="M42.77,60.74s-4.63-.32-5.33,4.19,4.68,8.43,8,2.89c0,0-.13,5.72,4.52,6.37s10.76-3,12.78-10.51-1-12.38-2.68-14.29-.11-5.54-2.34-8.06S50.9,36,46,39c-5.85,3.55-4.42,11.4-.32,13.87a2,2,0,0,1,.69,1.23c.1.77.87.68,1.56.4S50.5,56,51,56.41a12.81,12.81,0,0,0-2.55,3S44.73,58.09,42.77,60.74Z"/><path class="cls-7" d="M62.63,66.56A17.78,17.78,0,0,0,63.54,64c2.16-8-1-13.18-2.85-15.22s-.12-5.89-2.49-8.57-7.27-5.7-12.52-2.52A8.64,8.64,0,0,0,42.11,48.3"/><path class="cls-7" d="M43.83,51.17a6.74,6.74,0,0,0,1.5,1.23,2.16,2.16,0,0,1,.74,1.32c.1.81.92.71,1.66.42S50.5,55.72,51,56.22a13.68,13.68,0,0,0-2.72,3.22s-3.92-1.44-6,1.39c0,0-4.93-.35-5.68,4.46s5,9,8.52,3.07c0,0-.14,6.1,4.82,6.79,3.2.45,7-1,9.94-4.25"/><path class="cls-7" d="M51,56.22s3.1-2.77,4.48-3.7"/><path class="cls-7" d="M51.9,62.69s3.58-2.46,4.67-4.26"/><path class="cls-7" d="M45.12,68.36a54.25,54.25,0,0,1,.57-6"/><path class="cls-7" d="M42.28,60.83s-1.81,2.4-1.46,7.31"/><path class="cls-7" d="M54,67.07c-2-6.2-5.75-7.63-5.75-7.63s-.91-3.11-3.49-2.87-2.15,3.83-2.15,3.83A7.47,7.47,0,0,0,41,57.09c-1.19-1.15-2.75-.39-3.95.82S32.39,60.49,31.72,56a29.87,29.87,0,0,0-.42-3,3.42,3.42,0,0,0-1.7-2.29,2.08,2.08,0,0,0-2.61.63c-.56.89-.17,2.06.27,3a4,4,0,0,1,.53,3,2.2,2.2,0,0,1-2.38,1.21,3.27,3.27,0,0,1-2.22-1.7,6.39,6.39,0,0,1-.66-2.79,18.56,18.56,0,0,0-.12-2.36,3.15,3.15,0,0,0-1.09-2,1.74,1.74,0,0,0-2.18,0"/><path class="cls-7" d="M50.85,47.57c2.33-.45,3.32.07,2.75,2.9"/></svg>