<svg id="图层_1" data-name="图层 1" xmlns="http://www.w3.org/2000/svg" viewBox="0 0 207.47 110.45"><defs><style>.cls-1{fill:#fff;stroke-width:0.45px;}.cls-1,.cls-2{stroke:#b5b5b6;}.cls-1,.cls-2,.cls-6{stroke-miterlimit:10;}.cls-2,.cls-6{fill:none;stroke-linecap:round;}.cls-2{stroke-width:0.91px;}.cls-3{font-size:31.78px;}.cls-3,.cls-7{font-family:ArialMT, Arial;}.cls-4{fill:#f4f4f4;}.cls-5{fill:#8bd2ff;}.cls-6{stroke:#4f4f4f;stroke-width:0.63px;}.cls-7{font-size:13.62px;}</style></defs><rect class="cls-1" x="0.23" y="0.23" width="207.01" height="110" rx="5.26"/><line class="cls-2" x1="96.63" y1="22.95" x2="96.63" y2="88.55"/><text class="cls-3" transform="translate(142.8 49.91)">9</text><circle class="cls-4" cx="47.99" cy="55.75" r="29.87"/><path class="cls-5" d="M53.37,61.42l-.31-.26a.4.4,0,0,0-.29-.12H50.92a1.53,1.53,0,0,1-1-.41l-1.34-1.29.79-.86a1.61,1.61,0,0,0-.19-2.33l-.52-.43a1.63,1.63,0,0,0-1-.37H47.2a1.65,1.65,0,0,0-1,.36c-.75.61-2.33,1.9-4,3.38-2.33,2-.29,5.58,1,6.07.93.34,2.27.91,3,1.21a.78.78,0,0,1,.47.71v5h2.11V66.2A1.46,1.46,0,0,0,48,64.94l-3.52-2,2.62-2.34,1.77,1.82a1.47,1.47,0,0,0,1.06.45h2.71a1.48,1.48,0,0,1,.86-1.08v-.07A.45.45,0,0,0,53.37,61.42Z"/><circle class="cls-5" cx="51.09" cy="55.02" r="2.04"/><path class="cls-5" d="M45.9,67l-1.59,3.45a1.51,1.51,0,0,1-2,.74h0a1.52,1.52,0,0,1-.75-2l1.6-3.46"/><path class="cls-5" d="M55.1,48.3h-4v4h.13a2,2,0,0,1,2,1.69H55.1Z"/><polyline class="cls-5" points="60.17 72.05 60.17 40.39 64.98 40.39 64.98 72.05"/><polyline class="cls-5" points="55.95 72.05 55.95 45.58 59.5 45.58 59.5 72.05"/><polyline class="cls-5" points="37.13 72.05 37.13 62.8 40.17 62.8 40.17 72.05"/><polyline class="cls-5" points="31.13 72.05 31.13 66.54 35.34 66.54 35.34 72.05"/><line class="cls-6" x1="30.26" y1="72.05" x2="65.73" y2="72.05"/><polyline class="cls-6" points="59.39 72.05 59.39 39.45 64.2 39.45 64.2 72.05"/><polyline class="cls-6" points="59.39 44.64 54.73 44.64 54.73 59.11"/><polyline class="cls-6" points="50.26 51.34 50.26 47.51 54.73 47.51"/><polyline class="cls-6" points="50.26 49.64 45.8 49.64 45.8 53.82"/><polyline class="cls-6" points="39.53 62.07 36.62 62.07 36.62 72.05 36.62 66.15 31.81 66.15 31.81 72.05"/><path class="cls-6" d="M45.32,67.33l-1.58,3.45a1.51,1.51,0,0,1-2,.74h0a1.51,1.51,0,0,1-.74-2l1.6-3.46"/><path class="cls-6" d="M46.82,72.05V66.91a.8.8,0,0,0-.48-.72c-.7-.3-2-.86-3-1.2-1.31-.49-3.35-4-1-6.07,1.68-1.48,3.27-2.78,4-3.38a1.59,1.59,0,0,1,1-.36h.38a1.63,1.63,0,0,1,1,.37l.52.43a1.61,1.61,0,0,1,.59,1.25h0a1.64,1.64,0,0,1-.4,1.08l-.79.86"/><path class="cls-6" d="M44.68,62.8l3.51,2A1.42,1.42,0,0,1,48.93,66v6"/><path class="cls-6" d="M47.77,58.25l2.3,2.2a1.49,1.49,0,0,0,1,.42H53a.44.44,0,0,1,.29.11l.3.27a.41.41,0,0,1,.15.33h0"/><circle class="cls-6" cx="50.87" cy="54.63" r="2.04"/><path class="cls-6" d="M55.28,72.05V62.81c0-1.52-2.56-2.07-2.56.93"/><path class="cls-6" d="M52.84,62.73H50.12a1.46,1.46,0,0,1-1-.45l-2.68-2.76"/><line class="cls-6" x1="47.34" y1="60.5" x2="45.9" y2="61.86"/><text class="cls-7" transform="translate(128.17 75.89)">Age-bin</text></svg>