<svg id="图层_1" data-name="图层 1" xmlns="http://www.w3.org/2000/svg" viewBox="0 0 207.47 110.45"><defs><style>.cls-1,.cls-8{fill:#fff;}.cls-1,.cls-2{stroke:#b5b5b6;}.cls-1,.cls-2,.cls-7{stroke-miterlimit:10;}.cls-1{stroke-width:0.45px;}.cls-2,.cls-7{fill:none;stroke-linecap:round;}.cls-2{stroke-width:0.91px;}.cls-3{font-size:31.78px;}.cls-3,.cls-5{font-family:ArialMT, Arial;}.cls-4{fill:#f4f4f4;}.cls-5{font-size:13.62px;}.cls-6{fill:#8bd2ff;}.cls-7{stroke:#4f4f4f;stroke-width:0.63px;}</style></defs><rect class="cls-1" x="0.23" y="0.23" width="207.01" height="110" rx="5.26"/><line class="cls-2" x1="96.63" y1="22.95" x2="96.63" y2="88.55"/><text class="cls-3" transform="translate(133.96 49.91)">15</text><circle class="cls-4" cx="47.99" cy="55.75" r="29.87"/><text class="cls-5" transform="translate(127.03 75.89)">Disease</text><path class="cls-6" d="M53.91,63.31a3.62,3.62,0,0,1-.79,2.18c-.89,1.39-2.61,8.55,4.84,9,7.72.45,13.13-17.26,5.34-25.17-7.53-7.65-11.73-.6-11,2.62s1.64,3.32,1.51,4.82-1.62,2.31-1.61,3.7S53.67,62.05,53.91,63.31Z"/><path class="cls-7" d="M53.23,63.26a3.88,3.88,0,0,1-.82,2.26c-.92,1.43-2.7,8.83,5,9.27,8,.46,13.57-17.82,5.52-26-7.77-7.9-12.11-.62-11.34,2.71s1.7,3.43,1.56,5-1.67,2.39-1.66,3.83S53,62,53.23,63.26Z"/><path class="cls-7" d="M53.15,56.35a3.67,3.67,0,0,0,2.22,1.24"/><path class="cls-7" d="M53.23,63.4a4.73,4.73,0,0,1,2.68-1.06"/><path class="cls-8" d="M61.47,52.31c1.58,1.43,2.06,3.71,2.38,5.74.39,3.42,0,7.33-2.38,10,1.91-3.65,2-7.94,1.34-11.92a9.76,9.76,0,0,0-1.34-3.81Z"/><path class="cls-7" d="M51.94,58.91s-3.34.59-3.34-1.76V53.21"/><path class="cls-7" d="M51.48,60.88A2.39,2.39,0,0,0,48.6,63.4V75.89"/><path class="cls-6" d="M41.49,59.71a3.71,3.71,0,0,0,.79,2.18c.89,1.39,2.61,8.55-4.83,9-7.73.45-13.14-17.25-5.35-25.17,7.53-7.64,11.73-.59,11,2.63s-1.64,3.32-1.51,4.81,1.62,2.32,1.61,3.71S41.73,58.45,41.49,59.71Z"/><path class="cls-7" d="M28.73,58.75c-.61-4.88.36-10.11,3.75-13.55,7.77-7.89,12.12-.61,11.34,2.71s-1.7,3.43-1.56,5,1.67,2.38,1.66,3.82-1.5,1.66-1.75,3A3.86,3.86,0,0,0,43,61.92c.92,1.44,2.7,8.83-5,9.28"/><path class="cls-7" d="M42.25,52.76A3.68,3.68,0,0,1,40,54"/><path class="cls-7" d="M42.17,59.8a4.75,4.75,0,0,0-2.68-1"/><path class="cls-8" d="M33.93,48.71c-1.58,1.44-2.06,3.72-2.38,5.75-.39,3.41,0,7.32,2.38,10C32,60.79,32,56.51,32.59,52.53a9.75,9.75,0,0,1,1.34-3.82Z"/><path class="cls-7" d="M43.46,55.32s3.34.59,3.34-1.76v-4"/><path class="cls-7" d="M43.92,57.28A2.4,2.4,0,0,1,46.8,59.8V72.29"/><polygon class="cls-8" points="56.97 54.84 68.12 42.03 62.55 42.03 65.32 37.99 58.12 37.99 55.21 44.73 60.76 44.73 56.97 54.84"/><polygon class="cls-7" points="55.69 54.33 66.84 41.53 61.26 41.53 64.04 37.48 56.83 37.48 53.93 44.22 59.48 44.22 55.69 54.33"/><path class="cls-4" d="M29.47,72l3-.5a1.43,1.43,0,0,0,1.21-.18l0,0,2.39-.4h0a1.64,1.64,0,0,0,1.1-.21,1.73,1.73,0,0,0,.87-1.2c0-.4-.85-.6-1.29-.92a1.92,1.92,0,0,1-.29-.28,5.27,5.27,0,0,0,.58-.66,4.39,4.39,0,0,0,.67-1.46v.12c.71.22,1.26.9,1.45.9s.63-.39.76-.86a1.46,1.46,0,0,0-.19-1.26c-.22-.26-.88.14-1.34.21a1.55,1.55,0,0,1-.53,0,4.52,4.52,0,0,0-.44-2.07,12.33,12.33,0,0,1,1.87-.38,1.32,1.32,0,0,0-.06-1.33,1.68,1.68,0,0,0-1.18-.9c-.39,0-.62.83-.95,1.26a1.72,1.72,0,0,1-.37.34,4.12,4.12,0,0,0-.69-.62,4.2,4.2,0,0,0-1.37-.65c.25-.7.91-1.22.92-1.41s-.38-.63-.84-.77a1.46,1.46,0,0,0-1.27.17c-.27.21.12.88.18,1.34a1.73,1.73,0,0,1,0,.51,4.26,4.26,0,0,0-2,.45,4.37,4.37,0,0,1-.35-1.38h0c0-.2,0-.34-.11-.39-.2-.2-.84-.16-1.32.14A1.77,1.77,0,0,0,29,60.7l-2.46,2.43,1.39,4.23a.23.23,0,0,0-.11,0,1.32,1.32,0,0,0,.06,1.33,2,2,0,0,0,.75.74Z"/><circle class="cls-6" cx="34.13" cy="65.01" r="3.71"/><path class="cls-6" d="M37.54,63.53a1.53,1.53,0,0,1,.51-.21c.45-.09,1.21.06,1.33-.27a1.46,1.46,0,0,0-.25-1.25c-.29-.39-.78-.63-1-.54s-.43.86-1,1.32"/><path class="cls-6" d="M32.22,61a1.62,1.62,0,0,1-.23-.5c-.1-.46,0-1.22-.29-1.33a1.51,1.51,0,0,0-1.25.28c-.39.3-.61.8-.52,1s.88.41,1.36,1"/><path class="cls-4" d="M32.24,63.39l-.07-.74a.14.14,0,0,1,.21-.14l.66.39a.15.15,0,0,0,.19,0l.4-.57a.15.15,0,0,1,.26,0l.21.6a.14.14,0,0,0,.2.08l.65-.33a.14.14,0,0,1,.21.13v.9a.14.14,0,0,0,.12.14L36,64a.15.15,0,0,1,.09.24l-.46.54a.15.15,0,0,0,0,.18l.55.71a.15.15,0,0,1-.09.23l-.82.16a.15.15,0,0,0-.11.16l.09.84a.15.15,0,0,1-.2.15l-.7-.31a.14.14,0,0,0-.18,0l-.45.66a.15.15,0,0,1-.24,0l-.4-.6a.15.15,0,0,0-.17-.06l-.85.32a.15.15,0,0,1-.19-.15l.06-.8a.14.14,0,0,0-.12-.15L31.16,66a.14.14,0,0,1-.09-.23l.46-.53a.15.15,0,0,0,0-.22l-.61-.39a.15.15,0,0,1,0-.26l.73-.2"/><path class="cls-6" d="M35.08,62.09a2.61,2.61,0,0,1,.35-1.15c.3-.44,1-.93.89-1.3a1.75,1.75,0,0,0-1.22-.84c-.57-.1-1.17.11-1.28.37s.62,1.61,0,2.65"/><path class="cls-7" d="M33.65,69.35a4.27,4.27,0,0,0,3.4-1.78,3.45,3.45,0,0,0,.2-.32"/><path class="cls-7" d="M29.29,65.09a4.28,4.28,0,0,0,1.79,3.46,3.62,3.62,0,0,0,.41.27"/><path class="cls-7" d="M33.71,60.8a4.29,4.29,0,0,0-3.62,1.79,2.13,2.13,0,0,0-.16.25"/><path class="cls-7" d="M37.85,65.11a4.29,4.29,0,0,0-1.79-3.51l-.23-.15"/><path class="cls-7" d="M32.32,63.55l-.07-.74a.15.15,0,0,1,.22-.14l.66.39a.14.14,0,0,0,.19,0l.4-.56a.14.14,0,0,1,.25,0l.21.6a.15.15,0,0,0,.2.08l.66-.33a.14.14,0,0,1,.21.13l0,.9a.15.15,0,0,0,.13.14l.73.12a.14.14,0,0,1,.09.23l-.45.54a.15.15,0,0,0,0,.19l.55.7a.14.14,0,0,1-.08.23l-.83.17a.13.13,0,0,0-.11.15l.09.84a.14.14,0,0,1-.2.15l-.7-.31a.13.13,0,0,0-.17,0l-.46.66a.14.14,0,0,1-.23,0l-.41-.61a.13.13,0,0,0-.17-.05l-.84.31a.14.14,0,0,1-.19-.15l.06-.8a.14.14,0,0,0-.13-.15l-.65-.07a.14.14,0,0,1-.09-.24l.45-.53a.13.13,0,0,0,0-.21l-.61-.4a.15.15,0,0,1,.05-.26l.72-.19"/><path class="cls-7" d="M36.75,66.66a2.74,2.74,0,0,1,1.14.37c.44.31.91,1.08,1.28.92A1.7,1.7,0,0,0,40,66.74c.11-.56-.08-1.17-.34-1.29s-1.62.6-2.65-.08"/><path class="cls-7" d="M37.66,63.69a1.53,1.53,0,0,1,.51-.21c.45-.09,1.21.06,1.33-.26A1.49,1.49,0,0,0,39.25,62c-.29-.4-.78-.64-1-.55s-.43.86-1,1.32"/><path class="cls-7" d="M32,61a1.73,1.73,0,0,1-.22-.5c-.1-.45,0-1.21-.29-1.32a1.48,1.48,0,0,0-1.25.28c-.39.29-.62.79-.52,1s.88.41,1.35,1"/><path class="cls-7" d="M29.51,66.57a1.77,1.77,0,0,1-.51.21c-.45.08-1.21-.07-1.33.26a1.46,1.46,0,0,0,.25,1.25c.29.4.78.64,1,.55S29.39,68,30,67.49"/><path class="cls-7" d="M35.1,69.12a1.75,1.75,0,0,1,.2.51c.08.45-.09,1.21.23,1.33a1.47,1.47,0,0,0,1.26-.22c.4-.28.65-.76.56-1s-.87-.49-1.32-1.09"/><path class="cls-7" d="M35.14,61.86a2.58,2.58,0,0,1,.35-1.14c.3-.45,1.06-.94.89-1.3a1.73,1.73,0,0,0-1.22-.84c-.56-.1-1.17.1-1.28.36s.62,1.62,0,2.66"/><path class="cls-7" d="M30.4,63.53a2.58,2.58,0,0,1-1.12-.4c-.43-.33-.88-1.11-1.25-1a1.69,1.69,0,0,0-.9,1.17,1.32,1.32,0,0,0,.29,1.3c.26.13,1.65-.54,2.65.18"/><path class="cls-7" d="M32,68.37a2.72,2.72,0,0,1-.34,1.15c-.3.44-1.05.94-.88,1.3a1.68,1.68,0,0,0,1.23.83,1.32,1.32,0,0,0,1.28-.37c.11-.26-.64-1.61,0-2.66"/></svg>