<svg id="图层_1" data-name="图层 1" xmlns="http://www.w3.org/2000/svg" viewBox="0 0 207.47 110.45"><defs><style>.cls-1,.cls-9{fill:#fff;}.cls-1,.cls-2{stroke:#b5b5b6;}.cls-1,.cls-2,.cls-8{stroke-miterlimit:10;}.cls-1{stroke-width:0.45px;}.cls-2,.cls-8{fill:none;stroke-linecap:round;}.cls-2{stroke-width:0.91px;}.cls-3{font-size:31.78px;letter-spacing:-0.07em;}.cls-3,.cls-6{font-family:ArialMT, Arial;}.cls-4{letter-spacing:0em;}.cls-5{fill:#f4f4f4;}.cls-6{font-size:13.62px;}.cls-7{fill:#8bd2ff;}.cls-8{stroke:#4f4f4f;stroke-width:0.63px;}</style></defs><rect class="cls-1" x="0.23" y="0.23" width="207.01" height="110" rx="5.26"/><line class="cls-2" x1="96.63" y1="22.95" x2="96.63" y2="88.55"/><text class="cls-3" transform="translate(133.96 49.91)">1<tspan class="cls-4" x="15.31" y="0">1</tspan></text><circle class="cls-5" cx="47.99" cy="55.75" r="29.87"/><text class="cls-6" transform="translate(132.71 75.89)">Organ</text><path class="cls-7" d="M54.87,60.78A4,4,0,0,1,54,63.19c-1,1.54-2.89,9.48,5.35,10,8.56.5,14.55-19.11,5.92-27.88-8.34-8.47-13-.66-12.16,2.91s1.82,3.68,1.67,5.33S53,56.06,53,57.61,54.61,59.38,54.87,60.78Z"/><path class="cls-8" d="M54.11,60.73a4.2,4.2,0,0,1-.9,2.49c-1,1.6-3,9.79,5.53,10.28,8.83.51,15-19.74,6.11-28.79-8.61-8.75-13.42-.68-12.56,3s1.88,3.8,1.73,5.51-1.85,2.64-1.84,4.24S53.84,59.29,54.11,60.73Z"/><path class="cls-8" d="M54,53.07a4,4,0,0,0,2.46,1.38"/><path class="cls-8" d="M54.12,60.88a5.27,5.27,0,0,1,3-1.17"/><path class="cls-9" d="M63.25,48.59C65,50.18,65.53,52.71,65.88,55c.43,3.78,0,8.11-2.63,11.06,2.11-4,2.15-8.79,1.47-13.2a10.74,10.74,0,0,0-1.47-4.23Z"/><path class="cls-8" d="M52.69,55.91S49,56.56,49,54V49.59"/><path class="cls-8" d="M52.18,58.09A2.65,2.65,0,0,0,49,60.88V74.71"/><path class="cls-7" d="M41.12,56.79A4,4,0,0,0,42,59.21c1,1.54,2.89,9.47-5.36,9.95-8.55.49-14.54-19.12-5.91-27.88,8.34-8.47,13-.66,12.16,2.91s-1.82,3.67-1.68,5.33S43,52.08,43,53.62,41.38,55.4,41.12,56.79Z"/><path class="cls-8" d="M41.87,56.75a4.2,4.2,0,0,0,.9,2.49c1,1.59,3,9.78-5.52,10.28-8.84.51-15-19.74-6.11-28.8,8.61-8.74,13.41-.68,12.55,3S41.81,47.52,42,49.24s1.85,2.64,1.85,4.23S42.14,55.3,41.87,56.75Z"/><path class="cls-8" d="M42,49.09a4,4,0,0,1-2.45,1.38"/><path class="cls-8" d="M41.87,56.9a5.27,5.27,0,0,0-3-1.17"/><path class="cls-9" d="M32.74,44.61C31,46.2,30.46,48.73,30.1,51c-.42,3.79,0,8.12,2.64,11.07-2.11-4-2.16-8.79-1.48-13.2a10.75,10.75,0,0,1,1.48-4.23Z"/><path class="cls-8" d="M43.29,51.93S47,52.58,47,50V45.61"/><path class="cls-8" d="M43.81,54.1A2.66,2.66,0,0,1,47,56.9V70.73"/></svg>