<svg id="图层_1" data-name="图层 1" xmlns="http://www.w3.org/2000/svg" viewBox="0 0 89.5 61.11"><defs><style>.cls-1{fill:#8bd2ff;}.cls-2,.cls-3{fill:none;stroke:#4f4f4f;stroke-miterlimit:10;}.cls-2{stroke-linecap:round;}.cls-4{fill:#4f4f4f;}</style></defs><circle class="cls-1" cx="21.13" cy="4.65" r="2.77"/><circle class="cls-1" cx="61.95" cy="58.35" r="2.77"/><path class="cls-1" d="M1.13,51.35a2.83,2.83,0,0,1,2.41-2.76C11.45,47.25,16,39.33,20.8,31c5.55-9.65,11.85-20.6,24.51-20.6s19,11,24.52,20.6c4.79,8.34,9.35,16.26,17.25,17.6a2.83,2.83,0,0,1,2.42,2.76h0a2.83,2.83,0,0,1-3.33,2.76C75.69,52.38,70,42.55,65,33.78,59.72,24.63,54.74,16,45.31,16s-14.4,8.65-19.67,17.8c-5,8.77-10.7,18.6-21.18,20.33a2.82,2.82,0,0,1-3.33-2.76Z"/><path class="cls-1" d="M1.13,13.7a2.83,2.83,0,0,0,2.41,2.76C11.45,17.8,16,25.72,20.8,34.06c5.55,9.65,11.85,20.6,24.51,20.6s19-10.95,24.52-20.6c4.79-8.34,9.35-16.26,17.25-17.6A2.83,2.83,0,0,0,89.5,13.7h0a2.83,2.83,0,0,0-3.33-2.76C75.69,12.67,70,22.5,65,31.27c-5.26,9.15-10.24,17.8-19.67,17.8s-14.4-8.65-19.67-17.8c-5-8.77-10.7-18.61-21.18-20.33A2.82,2.82,0,0,0,1.13,13.7Z"/><path class="cls-2" d="M66.77,25C71.82,16.59,78,8.53,88.86,8.53"/><path class="cls-2" d="M25.82,30.52c5,8.62,9.91,16.41,18.86,16.41s13.89-7.79,18.87-16.41"/><path class="cls-2" d="M.5,8.53c10.87,0,17.05,8.06,22.09,16.45"/><path class="cls-2" d="M19.24,30.32C14.3,21.78,9.38,14.12.5,14.12"/><path class="cls-2" d="M49.4,52a20.29,20.29,0,0,1-4.72.55c-10.87,0-17-8.07-22.09-16.45"/><path class="cls-2" d="M66.77,36.07a48.7,48.7,0,0,1-8.29,10.86"/><path class="cls-2" d="M88.86,14.12c-8.87,0-13.8,7.66-18.74,16.2"/><path class="cls-2" d="M44.68,8.53c12.66,0,19,10.94,24.52,20.6,5.26,9.15,10.23,17.8,19.66,17.8"/><path class="cls-2" d="M.5,46.93c9.43,0,14.4-8.65,19.67-17.8,3.74-6.51,7.83-13.61,14-17.54"/><path class="cls-2" d="M10.59,49.74A19.09,19.09,0,0,1,.5,52.52"/><path class="cls-2" d="M88.86,52.52c-12.66,0-19-11-24.51-20.6-5.27-9.16-10.24-17.8-19.67-17.8S30.28,22.76,25,31.92C22.19,36.83,19.17,42.07,15.23,46"/><line class="cls-2" x1="87.02" y1="31.43" x2="87.02" y2="46.81"/><line class="cls-2" x1="87.02" y1="14.24" x2="87.02" y2="23.54"/><line class="cls-2" x1="44.68" y1="26.5" x2="44.68" y2="46.81"/><line class="cls-2" x1="44.68" y1="14.24" x2="44.68" y2="22.95"/><line class="cls-2" x1="78.57" y1="18.48" x2="78.57" y2="42.15"/><line class="cls-2" x1="55.81" y1="34.26" x2="55.81" y2="41.74"/><line class="cls-2" x1="55.81" y1="19.3" x2="55.81" y2="28.61"/><line class="cls-2" x1="2.01" y1="32.78" x2="2.01" y2="46.81"/><line class="cls-2" x1="2.01" y1="14.24" x2="2.01" y2="27.31"/><line class="cls-2" x1="11.22" y1="28.94" x2="11.22" y2="42.15"/><line class="cls-2" x1="11.22" y1="18.89" x2="11.22" y2="26.5"/><line class="cls-2" x1="35.01" y1="35.16" x2="35.01" y2="43.13"/><line class="cls-2" x1="35.01" y1="18.48" x2="35.01" y2="28.61"/><circle class="cls-3" cx="20.21" cy="3.27" r="2.77"/><circle class="cls-3" cx="63.3" cy="56.81" r="2.77"/><circle class="cls-1" cx="19.42" cy="57.58" r="1.25"/><circle class="cls-1" cx="35.01" cy="3.96" r="1.25"/><circle class="cls-1" cx="69.51" cy="5.21" r="1.25"/><path class="cls-4" d="M45,30.57l-.09-.11.19.19Z"/></svg>