<svg id="图层_1" data-name="图层 1" xmlns="http://www.w3.org/2000/svg" viewBox="0 0 62.95 64.18"><defs><style>.cls-1{fill:#8bd2ff;}.cls-2,.cls-3,.cls-4,.cls-5,.cls-6,.cls-7,.cls-8,.cls-9{fill:none;stroke:#4f4f4f;stroke-miterlimit:10;}.cls-2,.cls-4,.cls-5,.cls-6,.cls-7,.cls-8,.cls-9{stroke-linecap:round;}.cls-2,.cls-3{stroke-width:0.61px;}.cls-4{stroke-width:0.41px;}.cls-5{stroke-width:0.15px;}.cls-6{stroke-width:0.48px;}.cls-7{stroke-width:0.18px;}.cls-8{stroke-width:0.14px;}</style></defs><path class="cls-1" d="M28.84,30.6a4.6,4.6,0,0,1,.48-1.06,1.24,1.24,0,0,1,.36-.45,1.15,1.15,0,0,1,.71-.09,2,2,0,0,1,.68.15,1.15,1.15,0,0,1,.57,1.1,2.23,2.23,0,0,1-1.56,1.85C29.11,32.29,28.62,31.44,28.84,30.6Z"/><path class="cls-1" d="M38.17,19.12a.62.62,0,0,1,.26-.09.58.58,0,0,1,.38.13,1.54,1.54,0,0,1-.39,2.69A1.51,1.51,0,0,1,36.48,21C36.32,20.14,37.59,19.43,38.17,19.12Z"/><path class="cls-1" d="M17.44,21.39a6.15,6.15,0,0,0-.31-1.77,3.93,3.93,0,0,0-1.23-1.37,3.84,3.84,0,0,1-1.22-1.38,1.34,1.34,0,0,1,.38-1.66,1.47,1.47,0,0,1,1.68.33A16,16,0,0,1,17.89,17a1.76,1.76,0,0,0,1.59.73c1.12-.23,1.39-1.93,2.49-2.22.4-.1.85,0,1.23-.18.63-.31.61-1.2.55-1.9a4.15,4.15,0,0,1,.1-1.61,1.78,1.78,0,0,1,1-1.18,1.14,1.14,0,0,1,1.39.51,2.13,2.13,0,0,1,0,1.2,8.14,8.14,0,0,0,0,2.56,2.64,2.64,0,0,0,1.22,2c1,.49,2.17-.22,3.16-.77a6.31,6.31,0,0,1,3-.92c1.07,0,2.85.45,2.75,1.36a1.55,1.55,0,0,1-1,1.05,5.12,5.12,0,0,1-1.51.23,8,8,0,0,0-3.16.7,3.55,3.55,0,0,0-2,2.44,2.3,2.3,0,0,0,1.47,2.58,4,4,0,0,0,1.65,0,3.5,3.5,0,0,1,1.64,0,1.25,1.25,0,0,1,.93,1.21,1.71,1.71,0,0,1-.87,1.14,3,3,0,0,1-2.23.7,4.44,4.44,0,0,1-1.92-1.38c-.58-.55-2.15-1.75-2.15-.68,0,.75,2.57,3.14,1.23,3.07-.59-.09-.94-.68-1.33-1.13s-1.17-.77-1.54-.3a1.12,1.12,0,0,0-.19.7,18.83,18.83,0,0,0,.13,4.92,7.28,7.28,0,0,1,.27,1.66,1.62,1.62,0,0,1-.75,1.42,1.52,1.52,0,0,1-1.92-.74,3.19,3.19,0,0,1-.13-2.24,17.65,17.65,0,0,0,.54-2.23,4.21,4.21,0,0,0-1.37-3.53,1.84,1.84,0,0,0-1.51,1.46c-.21.72-.22,1.49-.5,2.19a1.61,1.61,0,0,1-1.71,1.12,1.35,1.35,0,0,1-.89-1.4A2.45,2.45,0,0,1,18.47,28a9.26,9.26,0,0,0,1.19-1.15,1.32,1.32,0,0,0,.13-1.53,1.24,1.24,0,0,0-1.68-.09,3.63,3.63,0,0,0-1,1.52A3.59,3.59,0,0,1,16,28.21a1.24,1.24,0,0,1-1.67-.13c-.43-.61,0-1.45.54-2a8.46,8.46,0,0,1,2.19-1.65c.46-.24,1.53-.73,1.25-1.43-.08-.19-.41-.33-.53-.5A2.32,2.32,0,0,1,17.44,21.39Z"/><path class="cls-2" d="M33.62,15.92a4.4,4.4,0,0,1,.73-.06c1.07,0,2.85.44,2.75,1.36a1.55,1.55,0,0,1-1,1.05,5.18,5.18,0,0,1-1.52.22,8.26,8.26,0,0,0-3.15.7,3.55,3.55,0,0,0-2,2.44,2.3,2.3,0,0,0,1.47,2.59,4,4,0,0,0,1.64,0,3.5,3.5,0,0,1,1.64,0,1.27,1.27,0,0,1,.94,1.21,1.81,1.81,0,0,1-.88,1.14,3,3,0,0,1-2.23.7,4.52,4.52,0,0,1-1.92-1.38c-.58-.55-2.15-1.75-2.15-.68,0,.75,2.58,3.14,1.23,3.06-.59-.08-.94-.68-1.33-1.13s-1.17-.76-1.54-.3a1.23,1.23,0,0,0-.19.7,18.4,18.4,0,0,0,.14,4.92,7.26,7.26,0,0,1,.26,1.66,1.65,1.65,0,0,1-.74,1.43,1.52,1.52,0,0,1-1.93-.75,3.24,3.24,0,0,1-.13-2.24,17.1,17.1,0,0,0,.54-2.22,4.2,4.2,0,0,0-1.37-3.53c-.75,0-1.29.74-1.51,1.45a22.44,22.44,0,0,1-.49,2.19,1.6,1.6,0,0,1-1.72,1.12,1.34,1.34,0,0,1-.89-1.39,2.52,2.52,0,0,1,.82-1.55,8.57,8.57,0,0,0,1.19-1.14,1.33,1.33,0,0,0,.13-1.54,1.26,1.26,0,0,0-1.68-.09,3.76,3.76,0,0,0-1,1.52,3.54,3.54,0,0,1-1,1.52A1.26,1.26,0,0,1,15,28.75c-.43-.61,0-1.45.54-2a8.25,8.25,0,0,1,2.19-1.65c.46-.25,1.54-.74,1.25-1.44-.08-.18-.41-.32-.53-.49a2.39,2.39,0,0,1-.36-1.12c0-.23,0-.45-.06-.68"/><path class="cls-2" d="M16.52,18.92a3.92,3.92,0,0,1-1.22-1.38,1.35,1.35,0,0,1,.38-1.67,1.46,1.46,0,0,1,1.68.34,16,16,0,0,1,1.15,1.43,1.78,1.78,0,0,0,1.59.73c1.12-.23,1.39-1.93,2.49-2.22.4-.1.85,0,1.23-.18.63-.31.61-1.2.55-1.91a4.3,4.3,0,0,1,.1-1.6,1.77,1.77,0,0,1,1-1.18,1.13,1.13,0,0,1,1.38.51,2.09,2.09,0,0,1,0,1.19A7.92,7.92,0,0,0,27,15.55a2.62,2.62,0,0,0,1.21,2A3,3,0,0,0,30.87,17"/><path class="cls-3" d="M23.89,19.14a.71.71,0,0,0-.41-.25.81.81,0,0,0-.53.18,3.69,3.69,0,0,0-.68.56,1.08,1.08,0,0,0,.46,1.84c.69.24,1.34-.41,1.49-1A1.46,1.46,0,0,0,23.89,19.14Z"/><path class="cls-3" d="M29.19,31.22a4.6,4.6,0,0,1,.48-1.06,1.17,1.17,0,0,1,.37-.45,1.11,1.11,0,0,1,.7-.09,2,2,0,0,1,.68.15,1.15,1.15,0,0,1,.57,1.1A2,2,0,0,1,31.47,32a1.89,1.89,0,0,1-1,.67C29.47,32.9,29,32.06,29.19,31.22Z"/><path class="cls-3" d="M38.52,19.74a.62.62,0,0,1,.26-.09.53.53,0,0,1,.38.13,1.54,1.54,0,0,1-.39,2.69,1.5,1.5,0,0,1-1.93-.89C36.67,20.76,37.94,20.05,38.52,19.74Z"/><path class="cls-1" d="M40.4,32.66a1,1,0,0,1-.51-.09.75.75,0,0,1-.47-.48.89.89,0,0,1,.08-.48,2.3,2.3,0,0,1,.32-.67.79.79,0,0,1,1.32-.05,1.13,1.13,0,0,1,.24.87.93.93,0,0,1-.37.58A1.44,1.44,0,0,1,40.4,32.66Z"/><path class="cls-2" d="M40.72,33.13a1,1,0,0,1-.51-.09.71.71,0,0,1-.47-.48.93.93,0,0,1,.08-.49,2.43,2.43,0,0,1,.32-.67.92.92,0,0,1,.62-.37.87.87,0,0,1,.7.33,1.12,1.12,0,0,1,.24.86.91.91,0,0,1-.37.58A1.46,1.46,0,0,1,40.72,33.13Z"/><path class="cls-2" d="M40.43,30A.57.57,0,0,0,41,29.4a1.41,1.41,0,0,0-.3-.79,2.61,2.61,0,0,1-.43-.74,1.76,1.76,0,0,1,.52-1.63"/><path class="cls-2" d="M42.35,30.59a1,1,0,0,0,.78-.46c.27-.42.19-1,.38-1.46a1.36,1.36,0,0,1,1.61-.75"/><path class="cls-2" d="M43,32.25a.47.47,0,0,0,.47.4.9.9,0,0,0,.62-.23c.18-.14.34-.3.53-.43a1.67,1.67,0,0,1,2.14.27"/><path class="cls-2" d="M44.8,36.46a2.39,2.39,0,0,1-.19-.72.92.92,0,0,0-.37-.64,1.56,1.56,0,0,0-.75-.1,1.54,1.54,0,0,1-1.37-1.27"/><path class="cls-2" d="M40.75,38.12a2.2,2.2,0,0,1-.5-.34.77.77,0,0,1-.26-.54.75.75,0,0,1,.09-.3,1.64,1.64,0,0,1,.53-.55,2.58,2.58,0,0,0,.57-.52.73.73,0,0,0,.11-.72c-.11-.22-.34-.33-.51-.49s-.27-.47-.09-.62"/><path class="cls-2" d="M39.06,33.43a2.82,2.82,0,0,1,0,.87,1.1,1.1,0,0,1-.44.74,1.54,1.54,0,0,1-.88.19,2,2,0,0,0-.9.17.61.61,0,0,0-.29.77"/><path class="cls-2" d="M38.64,31.94a.71.71,0,0,1-.37.65,1.82,1.82,0,0,1-.76.19,1.53,1.53,0,0,1-.85-.13,2.17,2.17,0,0,1-.56-.57,1.17,1.17,0,0,0-.62-.48c-.26-.06-.59.11-.59.38"/><path class="cls-2" d="M39.1,30.6a3.25,3.25,0,0,1-.92-.22,1.09,1.09,0,0,1-.62-.69c-.07-.29,0-.61,0-.91A1,1,0,0,0,36.51,28"/><path class="cls-1" d="M8.39,27A.58.58,0,0,1,8.05,27a.47.47,0,0,1-.32-.32.59.59,0,0,1,.06-.32A1.43,1.43,0,0,1,8,25.89a.6.6,0,0,1,.41-.25.55.55,0,0,1,.47.22.71.71,0,0,1,.16.58.61.61,0,0,1-.24.39A1,1,0,0,1,8.39,27Z"/><path class="cls-4" d="M8.6,27.36a.82.82,0,0,1-.34-.06A.44.44,0,0,1,8,26.65a1.69,1.69,0,0,1,.21-.45A.6.6,0,0,1,8.63,26a.56.56,0,0,1,.47.22.76.76,0,0,1,.16.58.64.64,0,0,1-.25.39A1.09,1.09,0,0,1,8.6,27.36Z"/><path class="cls-4" d="M8.41,25.25a.4.4,0,0,0,.35-.39,1,1,0,0,0-.2-.53,1.76,1.76,0,0,1-.29-.49,1.21,1.21,0,0,1,.34-1.1"/><path class="cls-4" d="M9.69,25.65a.65.65,0,0,0,.52-.3c.19-.29.13-.67.26-1a.92.92,0,0,1,1.08-.5"/><path class="cls-4" d="M10.12,26.77a.33.33,0,0,0,.32.27.64.64,0,0,0,.41-.16l.35-.29a1.14,1.14,0,0,1,1.44.18"/><path class="cls-4" d="M11.34,29.59a1.37,1.37,0,0,1-.13-.49.61.61,0,0,0-.25-.42,1.05,1.05,0,0,0-.5-.07,1,1,0,0,1-.92-.85"/><path class="cls-4" d="M8.63,30.7a2.12,2.12,0,0,1-.35-.23.48.48,0,0,1-.16-.36.46.46,0,0,1,.05-.2,1.06,1.06,0,0,1,.36-.37,1.82,1.82,0,0,0,.38-.35A.47.47,0,0,0,9,28.71c-.07-.14-.22-.22-.34-.33s-.18-.31-.06-.42"/><path class="cls-4" d="M7.49,27.55a1.68,1.68,0,0,1,0,.59.74.74,0,0,1-.29.49,1.1,1.1,0,0,1-.59.14,1.11,1.11,0,0,0-.6.11.4.4,0,0,0-.2.51"/><path class="cls-4" d="M7.21,26.56A.47.47,0,0,1,7,27a1.1,1.1,0,0,1-.51.13A1,1,0,0,1,5.88,27a1.34,1.34,0,0,1-.37-.38.78.78,0,0,0-.42-.32c-.17,0-.39.08-.39.26"/><path class="cls-4" d="M7.52,25.66a2.16,2.16,0,0,1-.62-.15.72.72,0,0,1-.41-.46,6,6,0,0,1,0-.6.65.65,0,0,0-.7-.55"/><path class="cls-1" d="M36.72,46.64a2.12,2.12,0,0,0,1.31.45,2.41,2.41,0,0,0,1.48-1,3,3,0,0,0,1-2.38,2.57,2.57,0,0,0-.85-1.33,5.83,5.83,0,0,0-2.61-1.45,3.91,3.91,0,0,0-2.92.41,1.67,1.67,0,0,0-.68.69.92.92,0,0,0,.15,1c.3.41.51.88.8,1.3A8.29,8.29,0,0,0,36.72,46.64Z"/><path class="cls-2" d="M38.26,42.08A5.28,5.28,0,0,0,37,41.62a3.94,3.94,0,0,0-2.91.42,1.7,1.7,0,0,0-.69.69.93.93,0,0,0,.16,1.05c.29.41.5.88.79,1.3a8.29,8.29,0,0,0,2.31,2.26,2.17,2.17,0,0,0,1.32.45,2.46,2.46,0,0,0,1.47-1,3.07,3.07,0,0,0,1-2.39,2.48,2.48,0,0,0-.74-1.2"/><path class="cls-2" d="M36.61,44.83a.63.63,0,0,1-.46-.86,1.61,1.61,0,0,1,.7-.8,1,1,0,0,1,1,.73,1.05,1.05,0,0,1-.32,1C37.29,45.18,36.92,45,36.61,44.83Z"/><path class="cls-2" d="M35.76,41.45a.71.71,0,0,0-.37-.87,3.17,3.17,0,0,0-1-.24,1.25,1.25,0,0,1-.9-.45,2.54,2.54,0,0,1-.22-1,2.4,2.4,0,0,0-.8-1.25c-.37-.34-.8-.61-1.19-.93a5.67,5.67,0,0,1-1.83-2.89"/><path class="cls-2" d="M33.86,44.24a.71.71,0,0,1-.94.1,3.08,3.08,0,0,1-.7-.78,1.26,1.26,0,0,0-.83-.57,2.86,2.86,0,0,0-1,.3,2.28,2.28,0,0,1-1.48-.09c-.48-.16-.92-.41-1.39-.59a5.76,5.76,0,0,0-3.41-.2"/><path class="cls-2" d="M32.66,41.94a3.09,3.09,0,0,1-2.54-.23c-1-.75-2.11-2.08-4.1-1.35"/><path class="cls-2" d="M33,41.14a2.63,2.63,0,0,0-1.91-2.52,3.79,3.79,0,0,1-2.28-3"/><path class="cls-2" d="M32.09,41.12a2.27,2.27,0,0,1-1.46-.68c-.41-.37-.76-.81-1.19-1.16a3.76,3.76,0,0,0-2-.82"/><path class="cls-1" d="M45.17,38.78A2.17,2.17,0,0,0,44.58,40a2.46,2.46,0,0,0,.83,1.58,3.05,3.05,0,0,0,2.26,1.27,2.5,2.5,0,0,0,1.4-.7,5.75,5.75,0,0,0,1.74-2.43,3.89,3.89,0,0,0-.08-2.94,1.7,1.7,0,0,0-.61-.76.92.92,0,0,0-1.06,0c-.45.24-.93.4-1.38.64A8.41,8.41,0,0,0,45.17,38.78Z"/><path class="cls-2" d="M49.53,40.82a4.64,4.64,0,0,0,.59-1.15,4,4,0,0,0-.08-3,1.89,1.89,0,0,0-.61-.76.92.92,0,0,0-1.06,0c-.45.25-.93.4-1.38.64a8.44,8.44,0,0,0-2.51,2A2.14,2.14,0,0,0,43.89,40a2.33,2.33,0,0,0,.83,1.57A3,3,0,0,0,47,42.8a2.48,2.48,0,0,0,1.29-.6"/><path class="cls-2" d="M47,38.88a.8.8,0,0,1,.59-.44.72.72,0,0,1,.32.08,1.52,1.52,0,0,1,.71.79,1,1,0,0,1-.83,1,1.06,1.06,0,0,1-1-.43C46.56,39.52,46.82,39.17,47,38.88Z"/><path class="cls-2" d="M50.44,38.41a.72.72,0,0,0,.91-.27,3.09,3.09,0,0,0,.34-1,1.24,1.24,0,0,1,.56-.85,2.76,2.76,0,0,1,1-.11,2.42,2.42,0,0,0,1.34-.65c.37-.33.69-.73,1-1.08A5.62,5.62,0,0,1,58.76,33"/><path class="cls-2" d="M47.88,36.21a.69.69,0,0,1,0-.94,2.71,2.71,0,0,1,.84-.61,1.23,1.23,0,0,0,.66-.77,2.72,2.72,0,0,0-.19-1,2.34,2.34,0,0,1,.26-1.46c.22-.46.51-.87.74-1.32a5.62,5.62,0,0,0,.58-3.37"/><path class="cls-2" d="M50.29,35.28a3.1,3.1,0,0,1,.51-2.5c.86-.89,2.31-1.86,1.8-3.93"/><path class="cls-2" d="M51.05,35.69a2.62,2.62,0,0,0,2.72-1.61A3.81,3.81,0,0,1,57,32.14"/><path class="cls-2" d="M51.17,34.81A2.36,2.36,0,0,1,52,33.42c.42-.36.89-.66,1.29-1.05a3.74,3.74,0,0,0,1-1.86"/><path class="cls-1" d="M31.48,57.15,33.63,55a.65.65,0,0,0,.15-.69l-1.24-3.56a.69.69,0,0,0-.43-.42l-3.5-1.09a.67.67,0,0,0-.66.16l-2.11,2.11a.66.66,0,0,0-.16.68l1.18,3.52a.65.65,0,0,0,.42.42l3.52,1.18A.66.66,0,0,0,31.48,57.15Z"/><path class="cls-2" d="M34,53l-.61-1.75a.66.66,0,0,0-.42-.41l-3.5-1.09a.65.65,0,0,0-.66.16L26.65,52a.66.66,0,0,0-.16.68l1.18,3.52a.66.66,0,0,0,.41.42l3.52,1.17a.67.67,0,0,0,.68-.15l2.16-2.16a.64.64,0,0,0,.15-.68L34.34,54"/><path class="cls-2" d="M32.46,61.29a1.38,1.38,0,0,1-.56-1.51c.34-.88.56-1.63.21-2.05"/><path class="cls-2" d="M38.17,55.57a1.37,1.37,0,0,0-1.5-.56c-.88.34-1.64.56-2.06.22"/><path class="cls-2" d="M22.83,51.66a1.37,1.37,0,0,0,1.5.56c.88-.34,1.64-.56,2.06-.22"/><path class="cls-2" d="M28.54,45.94a1.38,1.38,0,0,1,.56,1.51c-.34.87-.56,1.63-.21,2"/><path class="cls-2" d="M35.88,48.56s0,1.1-.86,1.36-1.64.54-1.76,1.07"/><path class="cls-2" d="M27.79,56.65s0,1.1-.86,1.36-1.64.54-1.76,1.07"/><path class="cls-2" d="M28.84,55.14a2.58,2.58,0,0,1-.55-.49A1.16,1.16,0,0,1,28,54a.56.56,0,0,1,.23-.52.78.78,0,0,1,.3-.07,1.89,1.89,0,0,1,1.18.11,1.44,1.44,0,0,1,.55.75,1.76,1.76,0,0,1,0,1.44C30,56,29.07,55.31,28.84,55.14Z"/><path class="cls-1" d="M44.41,23.7l.54-.54A.17.17,0,0,0,45,23l-.32-.89a.16.16,0,0,0-.1-.11l-.88-.27a.15.15,0,0,0-.17,0l-.53.53a.17.17,0,0,0,0,.17l.3.88a.16.16,0,0,0,.1.11l.89.29A.16.16,0,0,0,44.41,23.7Z"/><path class="cls-5" d="M45,22.65l-.15-.44a.16.16,0,0,0-.11-.1l-.88-.28a.18.18,0,0,0-.17,0l-.53.53a.18.18,0,0,0,0,.17l.3.89a.16.16,0,0,0,.11.1l.88.3a.18.18,0,0,0,.17,0l.54-.54a.2.2,0,0,0,0-.18l-.06-.18"/><path class="cls-5" d="M44.65,24.74a.36.36,0,0,1-.14-.38c.09-.22.14-.41.06-.51"/><path class="cls-5" d="M46.09,23.31s-.16-.23-.38-.14-.41.14-.52,0"/><path class="cls-5" d="M42.24,22.32a.32.32,0,0,0,.37.14c.22-.08.41-.14.52-.05"/><path class="cls-5" d="M43.67,20.89s.23.16.14.38-.14.41-.05.51"/><path class="cls-5" d="M45.51,21.55s0,.27-.21.34-.41.13-.45.27"/><path class="cls-5" d="M43.48,23.58s0,.27-.21.34-.42.13-.45.27"/><path class="cls-5" d="M43.75,23.2a.86.86,0,0,1-.14-.13.3.3,0,0,1-.08-.16.15.15,0,0,1,.06-.13.11.11,0,0,1,.08,0,.41.41,0,0,1,.29,0,.43.43,0,0,1,.14.19.41.41,0,0,1,0,.36C44,23.41,43.8,23.24,43.75,23.2Z"/><path class="cls-1" d="M42.47,17.84,43,17.3a.15.15,0,0,0,0-.17l-.31-.89a.2.2,0,0,0-.11-.11l-.88-.27a.16.16,0,0,0-.16,0l-.53.53a.15.15,0,0,0,0,.17l.29.88a.2.2,0,0,0,.11.11l.88.29A.15.15,0,0,0,42.47,17.84Z"/><path class="cls-5" d="M43.09,16.79l-.15-.44a.16.16,0,0,0-.11-.1L42,16a.17.17,0,0,0-.17,0l-.53.53a.18.18,0,0,0,0,.17l.3.89a.13.13,0,0,0,.1.1l.88.3a.2.2,0,0,0,.18,0l.54-.54a.15.15,0,0,0,0-.17l-.06-.19"/><path class="cls-5" d="M42.72,18.88s-.23-.16-.14-.38.14-.41.05-.51"/><path class="cls-5" d="M44.15,17.45a.32.32,0,0,0-.37-.14c-.22.08-.41.14-.52.05"/><path class="cls-5" d="M40.3,16.47a.36.36,0,0,0,.38.14c.22-.09.41-.14.51-.06"/><path class="cls-5" d="M41.74,15a.36.36,0,0,1,.14.38c-.09.22-.14.41-.06.51"/><path class="cls-5" d="M43.58,15.69a.35.35,0,0,1-.22.34c-.22.06-.41.13-.44.27"/><path class="cls-5" d="M41.55,17.72a.35.35,0,0,1-.22.34c-.23.06-.41.14-.44.27"/><path class="cls-5" d="M41.81,17.34l-.14-.12a.28.28,0,0,1-.07-.17c0-.05,0-.11.06-.13a.1.1,0,0,1,.07,0,.39.39,0,0,1,.3,0,.36.36,0,0,1,.14.18.45.45,0,0,1,0,.36C42.1,17.56,41.87,17.38,41.81,17.34Z"/><path class="cls-1" d="M14.85,46.31s-7.1-6.09-3.59-10,6.9.59,7.32,2.65a44.81,44.81,0,0,0,2.17,7.12C21.42,47.62,20.69,51.27,14.85,46.31Z"/><path class="cls-2" d="M11.9,41.56c-.93-1.77-1.29-3.75.16-5.36,3.5-3.89,6.9.59,7.32,2.65.17.86.46,2,.78,3.08"/><path class="cls-2" d="M20.68,43.61c.31,1,.62,1.79.87,2.36.67,1.52-.06,5.17-5.89.2a19.43,19.43,0,0,1-3.17-3.59"/><path class="cls-2" d="M16.19,38.51c-.72,2-3.75.61-2-1.52"/><path class="cls-6" d="M15.63,42.44c.2-1.69,2.81-1.14,1.79.84"/><path class="cls-6" d="M13.27,35.13a1.57,1.57,0,0,1-.65-1.19c0-.49.2-1,.14-1.48a1.33,1.33,0,0,0-.71-1"/><path class="cls-6" d="M12,35.92a1.3,1.3,0,0,1-1.29-.13,3.77,3.77,0,0,1-.94-1,3.85,3.85,0,0,0-1-1"/><path class="cls-6" d="M11.12,37.93a3.44,3.44,0,0,1-1.88,0A2.58,2.58,0,0,0,7.38,38"/><path class="cls-6" d="M11.23,40.2a.43.43,0,0,1-.26.42,2.25,2.25,0,0,1-.51.13,1.66,1.66,0,0,0-1.09.91,6.65,6.65,0,0,1-.27.61.55.55,0,0,1-.55.3"/><path class="cls-6" d="M13,43.56a1.18,1.18,0,0,1-.59.73,2.2,2.2,0,0,0-.73.62,3.59,3.59,0,0,0-.27.8,1.61,1.61,0,0,1-.84.9"/><path class="cls-6" d="M15.68,46.22a.81.81,0,0,1,.09.81,1.69,1.69,0,0,1-.52.67c-.21.19-.44.36-.64.57a2.18,2.18,0,0,0-.51,1.85"/><path class="cls-6" d="M17.93,47.94a.67.67,0,0,1,0,.57c-.06.19-.16.37-.22.56a2,2,0,0,0,.05,1A4,4,0,0,1,18,51a1,1,0,0,1-.39.86"/><path class="cls-6" d="M20.15,48.78a1.19,1.19,0,0,0,.25,1.13c.17.19.39.31.55.5a.58.58,0,0,1,.13.68"/><path class="cls-6" d="M21.66,47.25a.63.63,0,0,1,.78,0,1.45,1.45,0,0,1,.49.67,4.4,4.4,0,0,0,.36.76.89.89,0,0,0,.69.42"/><path class="cls-6" d="M24.79,44.77a1.68,1.68,0,0,1-1.32,0c-.58-.25-1-.84-1.65-.89a1.07,1.07,0,0,0-.87.36"/><path class="cls-6" d="M19.8,40.59a.64.64,0,0,0,.72.18,6.66,6.66,0,0,0,.72-.33,1.79,1.79,0,0,1,2.05.56"/><path class="cls-6" d="M19,37.86a1.67,1.67,0,0,0,.69.11,1.31,1.31,0,0,0,.6-.24,11.87,11.87,0,0,0,1.09-1,1.79,1.79,0,0,1,1.35-.57"/><path class="cls-6" d="M17.38,35.53a4.31,4.31,0,0,1,1.6-1.6,2.41,2.41,0,0,0,.77-.53,1,1,0,0,0-.06-1.23"/><path class="cls-6" d="M15.85,34.74a1.34,1.34,0,0,1-.46-1.08,7.57,7.57,0,0,1,.29-1.11,2.12,2.12,0,0,0-.16-1.4"/><path class="cls-1" d="M36.94,13.07s-2.08-1.78-1-2.92,2,.17,2.14.78A12.78,12.78,0,0,0,38.67,13C38.87,13.46,38.65,14.53,36.94,13.07Z"/><path class="cls-7" d="M36.07,11.68a1.32,1.32,0,0,1,0-1.57c1-1.14,2,.17,2.15.78a9.21,9.21,0,0,0,.23.9"/><path class="cls-7" d="M38.65,12.28a6.36,6.36,0,0,0,.26.7c.19.44,0,1.51-1.73.06A5.57,5.57,0,0,1,36.25,12"/><path class="cls-7" d="M37.33,10.79c-.21.59-1.1.18-.57-.45"/><path class="cls-8" d="M37.17,11.94c.06-.49.82-.33.52.25"/><path class="cls-8" d="M36.48,9.8a.42.42,0,0,1-.19-.35c0-.15.06-.29,0-.44a.42.42,0,0,0-.21-.29"/><path class="cls-8" d="M36.11,10a.4.4,0,0,1-.38,0,1.2,1.2,0,0,1-.27-.28,1.29,1.29,0,0,0-.28-.29"/><path class="cls-8" d="M35.85,10.62a1.07,1.07,0,0,1-.56,0,.72.72,0,0,0-.54,0"/><path class="cls-8" d="M35.88,11.28a.14.14,0,0,1-.08.13l-.15,0a.47.47,0,0,0-.32.26,1,1,0,0,1-.08.18.15.15,0,0,1-.16.09"/><path class="cls-8" d="M36.41,12.27a.37.37,0,0,1-.18.21.91.91,0,0,0-.21.18,2.25,2.25,0,0,0-.08.24.43.43,0,0,1-.25.26"/><path class="cls-8" d="M37.18,13.05a.23.23,0,0,1,0,.24.47.47,0,0,1-.15.19l-.19.17a.63.63,0,0,0-.15.54"/><path class="cls-8" d="M37.84,13.55a.21.21,0,0,1,0,.17c0,.06,0,.11-.07.16a.57.57,0,0,0,0,.29,1.37,1.37,0,0,1,0,.28.32.32,0,0,1-.12.26"/><path class="cls-8" d="M38.5,13.8a.33.33,0,0,0,.07.33c0,.06.11.09.16.15a.17.17,0,0,1,0,.2"/><path class="cls-8" d="M38.94,13.35a.18.18,0,0,1,.23,0,.45.45,0,0,1,.14.19,1,1,0,0,0,.11.23.27.27,0,0,0,.2.12"/><path class="cls-8" d="M39.85,12.62a.42.42,0,0,1-.38,0c-.17-.07-.3-.24-.48-.26a.35.35,0,0,0-.26.11"/><path class="cls-8" d="M38.39,11.4a.2.2,0,0,0,.21,0c.08,0,.14-.07.21-.09a.51.51,0,0,1,.6.16"/><path class="cls-8" d="M38.17,10.6a.44.44,0,0,0,.2,0,.36.36,0,0,0,.17-.07,1.88,1.88,0,0,0,.32-.31.51.51,0,0,1,.4-.16"/><path class="cls-8" d="M37.68,9.91a1.22,1.22,0,0,1,.47-.46.94.94,0,0,0,.23-.16.29.29,0,0,0,0-.36"/><path class="cls-8" d="M37.23,9.68a.37.37,0,0,1-.13-.31A1.77,1.77,0,0,1,37.18,9a.58.58,0,0,0,0-.41"/><path class="cls-1" d="M43.62,50.08s-2.08-1.78-1.06-2.92,2,.17,2.15.78A12.78,12.78,0,0,0,45.35,50C45.55,50.47,45.33,51.54,43.62,50.08Z"/><path class="cls-7" d="M42.75,48.69a1.3,1.3,0,0,1,0-1.57c1-1.14,2,.17,2.15.78,0,.25.13.57.23.9"/><path class="cls-7" d="M45.33,49.29c.09.28.18.53.25.7.2.44,0,1.51-1.73.06A5.72,5.72,0,0,1,42.93,49"/><path class="cls-7" d="M44,47.8c-.21.59-1.1.18-.57-.45"/><path class="cls-8" d="M43.85,49c0-.49.82-.33.52.25"/><path class="cls-8" d="M43.15,46.81a.49.49,0,0,1-.19-.35c0-.15.06-.29,0-.44a.4.4,0,0,0-.21-.29"/><path class="cls-8" d="M42.79,47a.4.4,0,0,1-.38,0,1.11,1.11,0,0,1-.28-.29,1.07,1.07,0,0,0-.28-.28"/><path class="cls-8" d="M42.52,47.63a1,1,0,0,1-.55,0,.77.77,0,0,0-.54,0"/><path class="cls-8" d="M42.56,48.29a.14.14,0,0,1-.08.13l-.15,0a.47.47,0,0,0-.32.26,1,1,0,0,1-.08.18.16.16,0,0,1-.16.09"/><path class="cls-8" d="M43.08,49.28a.32.32,0,0,1-.17.21.74.74,0,0,0-.21.18,1,1,0,0,0-.08.24.46.46,0,0,1-.25.26"/><path class="cls-8" d="M43.86,50.06a.23.23,0,0,1,0,.24.55.55,0,0,1-.15.19l-.19.17a.63.63,0,0,0-.15.54"/><path class="cls-8" d="M44.52,50.56a.2.2,0,0,1,0,.17,1.66,1.66,0,0,0-.06.16.57.57,0,0,0,0,.29.94.94,0,0,1,.06.28.32.32,0,0,1-.12.26"/><path class="cls-8" d="M45.17,50.81a.37.37,0,0,0,.08.33c0,.06.11.09.16.15a.17.17,0,0,1,0,.2"/><path class="cls-8" d="M45.62,50.36a.17.17,0,0,1,.22,0,.4.4,0,0,1,.15.19,1.12,1.12,0,0,0,.1.22.27.27,0,0,0,.21.13"/><path class="cls-8" d="M46.53,49.63a.42.42,0,0,1-.38,0c-.17-.07-.3-.24-.49-.26a.34.34,0,0,0-.25.11"/><path class="cls-8" d="M45.07,48.41a.2.2,0,0,0,.21.05,1.36,1.36,0,0,0,.21-.1.53.53,0,0,1,.6.17"/><path class="cls-8" d="M44.84,47.61a.38.38,0,0,0,.38,0c.12-.09.21-.21.32-.31a.51.51,0,0,1,.4-.16"/><path class="cls-8" d="M44.36,46.92a1.32,1.32,0,0,1,.47-.47.57.57,0,0,0,.22-.15.27.27,0,0,0,0-.36"/><path class="cls-8" d="M43.91,46.69a.38.38,0,0,1-.13-.31,1.77,1.77,0,0,1,.08-.33.58.58,0,0,0,0-.41"/><path class="cls-1" d="M29.43,11.25s-2.09-1.78-1.06-2.93,2,.18,2.15.78a12.91,12.91,0,0,0,.64,2.09C31.35,11.63,31.14,12.7,29.43,11.25Z"/><path class="cls-7" d="M28.56,9.86a1.3,1.3,0,0,1,.05-1.57c1-1.15,2,.17,2.14.77.05.25.14.58.23.91"/><path class="cls-7" d="M31.14,10.46c.09.28.18.52.25.69.2.45,0,1.52-1.73.06a6,6,0,0,1-.93-1.06"/><path class="cls-7" d="M29.82,9c-.21.59-1.1.18-.58-.44"/><path class="cls-8" d="M29.65,10.12c.06-.5.83-.34.53.24"/><path class="cls-8" d="M29,8a.48.48,0,0,1-.19-.35,3.13,3.13,0,0,0,0-.43.38.38,0,0,0-.2-.3"/><path class="cls-8" d="M28.6,8.2a.37.37,0,0,1-.38,0,1.28,1.28,0,0,1-.28-.29.93.93,0,0,0-.28-.28"/><path class="cls-8" d="M28.33,8.79a.94.94,0,0,1-.55,0,.8.8,0,0,0-.55,0"/><path class="cls-8" d="M28.36,9.46a.12.12,0,0,1-.07.12l-.15,0a.51.51,0,0,0-.32.27s-.05.12-.08.18-.1.1-.16.08"/><path class="cls-8" d="M28.89,10.44a.32.32,0,0,1-.17.22.65.65,0,0,0-.22.18,2.09,2.09,0,0,0-.08.23.46.46,0,0,1-.24.27"/><path class="cls-8" d="M29.67,11.22a.26.26,0,0,1,0,.24.51.51,0,0,1-.16.2,1,1,0,0,0-.18.17.66.66,0,0,0-.16.54"/><path class="cls-8" d="M30.33,11.73a.2.2,0,0,1,0,.17.76.76,0,0,0-.06.16.53.53,0,0,0,0,.28,1.47,1.47,0,0,1,.05.29.3.3,0,0,1-.11.25"/><path class="cls-8" d="M31,12a.39.39,0,0,0,.07.33l.17.14a.19.19,0,0,1,0,.2"/><path class="cls-8" d="M31.42,11.53a.2.2,0,0,1,.23,0,.5.5,0,0,1,.15.2,1.07,1.07,0,0,0,.1.22.25.25,0,0,0,.2.12"/><path class="cls-8" d="M32.34,10.8a.53.53,0,0,1-.39,0c-.17-.07-.29-.25-.48-.26a.33.33,0,0,0-.26.1"/><path class="cls-8" d="M30.88,9.57a.18.18,0,0,0,.21.06l.21-.1a.51.51,0,0,1,.6.16"/><path class="cls-8" d="M30.65,8.77a.79.79,0,0,0,.2,0A.37.37,0,0,0,31,8.73a3,3,0,0,0,.32-.3.52.52,0,0,1,.4-.17"/><path class="cls-8" d="M30.17,8.09a1.18,1.18,0,0,1,.47-.47.6.6,0,0,0,.22-.16.27.27,0,0,0,0-.36"/><path class="cls-8" d="M29.72,7.86a.43.43,0,0,1-.14-.32,1.92,1.92,0,0,1,.09-.32.68.68,0,0,0-.05-.42"/><path class="cls-1" d="M31.85,62.21A31.11,31.11,0,1,1,63,31.11,31.14,31.14,0,0,1,31.85,62.21Zm0-56.12a25,25,0,1,0,25,25A25,25,0,0,0,31.85,6.09Z"/><path class="cls-9" d="M62.08,38.84a31.12,31.12,0,1,1-2.1-19M31.61,7.57a25,25,0,1,0,25,25A25,25,0,0,0,31.61,7.57Z"/></svg>